<svg xmlns="http://www.w3.org/2000/svg" width="455" height="223" viewBox="0 0 455 223">
    <g fill="none" fill-rule="evenodd">
        <path fill="#0F556B" d="M341.936 134.623L341.936 107.651 330.994 107.651 330.994 122.331 322.296 122.331 322.296 97.032 307.708 97.032 307.708 88.598 293.118 88.598 293.118 107.651 285.291 107.651 285.291 64.981 267.059 72.374 267.059 92.829 259.731 92.829 259.731 49.3 240.373 49.3 240.373 75.764 226.065 75.764 226.065 112.064 219.05 112.064 219.05 91.531 204.703 91.531 204.703 62.896 191.299 51.565 191.299 89.06 180.588 89.06 180.588 80.876 165.149 90.239 165.149 104.722 156.134 104.722 156.134 65.268 140.208 65.268 140.208 126.453 129.833 126.453 129.833 120.497 117.208 120.497 117.208 133.508 104.565 133.508 104.565 195.068 118.745 195.068 118.745 190.656 127.027 190.656 129.833 190.656 143.628 190.656 143.628 189.028 156.134 189.028 156.134 185.707 173.782 185.707 173.782 176.392 180.588 176.392 180.588 181.11 191.299 181.11 191.299 182.945 204.703 182.945 204.703 180.476 219.05 180.476 219.05 185.797 226.065 186.049 226.065 178.94 240.373 178.94 240.373 185.707 256.084 185.707 256.084 187.089 267.059 187.089 267.059 188.471 281.615 188.471 285.291 188.471 298.448 188.471 298.448 187.089 304.882 187.089 304.882 188.471 322.296 188.471 322.296 187.089 330.994 187.089 333.799 187.089 340.533 187.089 340.533 191.819 355.131 191.819 355.131 134.623z"/>
        <g>
            <path fill="#6BAD3D" d="M398.977 199.71c-.931-5.78-4.502-10.306-8.871-11.982.067-.957.033-1.95-.13-2.96-.934-5.811-5.54-9.904-10.28-9.141-2.808.45-5.027 2.51-6.181 5.319-2.47-1.52-5.202-2.177-7.866-1.917-2.996-3.528-7.188-5.464-11.464-4.777-7.173 1.155-11.838 9.217-10.422 18.01.53 3.29 1.838 6.218 3.643 8.53-.74.4 51.571-1.083 51.571-1.083z" transform="translate(0 .575)"/>
            <path fill="#719433" d="M313.342 201.419c1.655-11.37-4.568-22.455-13.898-24.76-3.495-.863-6.928-.37-9.944 1.176-.107-1.315-.32-2.638-.66-3.955-2.655-10.33-11.6-16.274-19.977-13.273-4.176 1.497-7.423 4.935-9.3 9.285-3.229-1.71-6.918-2.119-10.502-.832-8.131 2.91-12.632 13.399-10.052 23.426 1.198 4.668 3.73 8.393 6.903 10.768l67.43-1.835z" transform="translate(0 .575)"/>
            <path fill="#8FBA41" d="M177.428 201.419c1.655-11.37-4.566-22.455-13.898-24.76-3.495-.863-6.928-.37-9.945 1.176-.106-1.315-.318-2.638-.658-3.955-2.656-10.33-11.602-16.274-19.978-13.273-4.176 1.497-7.423 4.935-9.3 9.285-3.23-1.71-6.919-2.119-10.502-.832-8.132 2.91-12.632 13.399-10.052 23.426 1.2 4.668 3.73 8.393 6.902 10.768l67.43-1.835z" transform="translate(0 .575)"/>
            <path fill="#8FA34F" d="M143.08 201.613l86.428.493c-.462-12.236-8.948-22.067-18.956-21.963-4.652.048-8.804 2.26-11.881 5.822-3.479-8.448-10.678-14.28-18.793-14.197-9.136.098-16.55 7.65-18.59 17.89-7.455-1.148-14.86 3.351-18.209 11.955" transform="translate(0 .575)"/>
            <path fill="#96B043" d="M285.216 201.613l86.429.493c-.462-12.236-8.948-22.067-18.956-21.963-4.653.048-8.805 2.26-11.882 5.822-3.478-8.448-10.677-14.28-18.793-14.197-9.135.098-16.55 7.65-18.59 17.89-7.454-1.148-14.86 3.351-18.208 11.955" transform="translate(0 .575)"/>
            <path fill="#4EA33C" d="M128.58 200.69c1.122-7.105-1.139-14.684-6.289-19.108-5.48-4.707-12.579-4.422-17.75.046-1.595-2.376-3.656-4.34-6.117-5.655-8.36-4.461-18.087.228-21.727 10.477-1.361 3.836-1.676 7.908-1.1 11.737-1.028-.172-2.083-.225-3.157-.13-3.51.312-5.744.884-7.411 2.07l63.55.564z" transform="translate(0 .575)"/>
            <path fill="#E8BA5D" d="M285.216.31c-12.913 0-23.384 10.462-23.384 23.369 0 12.908 10.47 23.372 23.384 23.372s23.382-10.464 23.382-23.372c0-12.907-10.468-23.37-23.382-23.37" transform="translate(0 .575)"/>
            <path fill="#FFF" d="M354.27 68.553c-.93 0-1.812.115-2.663.278.055-.379.126-.752.126-1.145 0-4.735-4.179-8.573-9.332-8.573-.181 0-.35.04-.53.05l.006-.05c0-5.213-4.6-9.44-10.276-9.44-5.674 0-10.274 4.227-10.274 9.44 0 .724.106 1.423.275 2.099-3.738.967-6.517 3.946-6.894 7.598-.769-.15-1.562-.257-2.4-.257-4.978 0-9.016 2.847-9.016 6.358 0 3.51 4.038 6.358 9.017 6.358 2.97 0 5.584-1.026 7.227-2.589 2.322 2.207 6.996 3.734 12.45 3.734 6.291 0 11.553-2.026 13.332-4.797 1.49 2.32 4.934 3.947 8.952 3.947 5.376 0 9.735-2.912 9.735-6.506 0-3.592-4.359-6.505-9.735-6.505M138.347 73.706c-.185 0-.362.007-.544.009.535-1.227.841-2.541.841-3.918 0-6.418-6.331-11.62-14.142-11.62-7.378 0-13.429 4.643-14.079 10.567-1.568-1.11-3.599-1.784-5.824-1.784-4.724 0-8.587 3.025-8.948 6.866-1.112-.076-2.257-.12-3.433-.12-9.971 0-18.055 2.905-18.055 6.49 0 3.585 8.084 6.49 18.055 6.49 2.944 0 5.717-.257 8.172-.707.066 3.937 4.462 7.117 9.881 7.117 2.585 0 4.93-.729 6.692-1.913 2.482 1.17 6.108 1.913 10.159 1.913 7.429 0 13.454-2.483 13.531-5.558 10.876-.368 19.351-3.314 19.351-6.896 0-3.83-9.696-6.936-21.657-6.936" transform="translate(0 .575)"/>
            <path fill="#428528" d="M132.994 169.07c0 10.171 8.254 18.417 18.43 18.417 10.173 0 18.423-8.246 18.423-18.417 0-10.173-8.25-18.418-18.423-18.418-10.176 0-18.43 8.245-18.43 18.418" transform="translate(0 .575)"/>
            <path fill="#573D33" d="M152.035 168.065l1.758 28.162c.02.29-.216.538-.503.538h-3.415c-.295 0-.524-.244-.503-.538l1.65-28.16c.041-.633.974-.635 1.013-.002" transform="translate(0 .575)"/>
            <path fill="#A8D632" d="M145.91 198.702h15.774c0-4.354-3.528-7.884-7.89-7.884-4.356 0-7.884 3.53-7.884 7.884" transform="translate(0 .575)"/>
            <path fill="#363636" d="M64.52 204.521L400.003 204.521 400.003 198.701 64.52 198.701z" transform="translate(0 .575)"/>
            <path fill="#C98138" d="M352.968 163.746c0 12-9.735 21.728-21.743 21.728-12 0-21.733-9.729-21.733-21.728 0-11.999 9.734-21.728 21.733-21.728 12.008 0 21.743 9.73 21.743 21.728" transform="translate(0 .575)"/>
            <path fill="#573D33" d="M330.506 162.56l-2.075 33.221c-.023.343.255.635.595.635h4.027c.35 0 .618-.288.595-.633l-1.949-33.22c-.046-.748-1.147-.75-1.193-.003" transform="translate(0 .575)"/>
            <path fill="#6C8F14" d="M337.732 198.702h-18.61c0-5.136 4.163-9.3 9.31-9.3 5.138 0 9.3 4.164 9.3 9.3" transform="translate(0 .575)"/>
            <path fill="#68B848" d="M147.569 163.018c0 14.153-5.33 25.626-11.915 25.626-6.575 0-11.91-11.473-11.91-25.626 0-14.15 5.335-25.62 11.91-25.62 6.584 0 11.915 11.47 11.915 25.62" transform="translate(0 .575)"/>
            <path fill="#5C4036" d="M134.924 176.712l-.843 20.156c-.04.954.308 1.773.756 1.773h1.64c.44 0 .789-.815.748-1.766l-.788-20.15c-.081-1.98-1.427-1.99-1.513-.013" transform="translate(0 .575)"/>
            <path fill="#68D63C" d="M148.778 198.702h-17.494c0-4.829 3.915-8.743 8.743-8.743 4.831 0 8.75 3.914 8.75 8.743" transform="translate(0 .575)"/>
            <path fill="#8FBA41" d="M393.66 163.018c0 14.153-5.331 25.626-11.915 25.626-6.576 0-11.91-11.473-11.91-25.626 0-14.15 5.334-25.62 11.91-25.62 6.584 0 11.915 11.47 11.915 25.62" transform="translate(0 .575)"/>
            <path fill="#5C4036" d="M381.014 176.712l-.842 20.156c-.041.954.308 1.773.756 1.773h1.639c.44 0 .788-.815.749-1.766l-.788-20.15c-.081-1.98-1.427-1.99-1.514-.013" transform="translate(0 .575)"/>
            <path fill="#68D63C" d="M394.869 198.702h-17.494c0-4.829 3.913-8.743 8.742-8.743 4.832 0 8.752 3.914 8.752 8.743" transform="translate(0 .575)"/>
            <path fill="#C96838" d="M97.988 174.262c0 9.693-5.331 17.551-11.917 17.551-6.574 0-11.908-7.858-11.908-17.551 0-9.692 5.334-17.548 11.908-17.548 6.586 0 11.917 7.856 11.917 17.548" transform="translate(0 .575)"/>
            <path fill="#5C4036" d="M85.342 183.64l-.842 13.806c-.04.653.308 1.214.756 1.214h1.64c.44 0 .789-.559.748-1.208l-.788-13.802c-.081-1.356-1.427-1.363-1.514-.01" transform="translate(0 .575)"/>
            <path fill="#68D63C" d="M99.197 198.702H81.703c0-3.307 3.913-5.988 8.743-5.988 4.831 0 8.75 2.681 8.75 5.988" transform="translate(0 .575)"/>
            <path fill="#454545" d="M232.834 66.043L233.925 66.043 233.925 50.309 232.834 50.309z" transform="translate(0 .575)"/>
            <path fill="#009E9C" d="M210.541 60.151L232.834 60.151 232.834 50.309 210.541 50.309 217.219 55.23z" transform="translate(0 .575)"/>
            <path fill="#7A7A7A" d="M180.672 179.744L285.216 179.744 285.216 113.507 180.672 113.507z" transform="translate(0 .575)"/>
            <path fill="#DEDEDE" d="M298.946 107.27L167.814 107.27 233.38 65.017z" transform="translate(0 .575)"/>
            <path fill="#BFBFBF" d="M284.412 103.436L182.347 103.436 233.379 70.549z" transform="translate(0 .575)"/>
            <path fill="#4D4D4D" d="M160.695 114.446L306.534 114.446 306.534 107.269 160.695 107.269z" transform="translate(0 .575)"/>
            <path fill="#DEDEDE" d="M241.341 90.293c0 4.396-3.564 7.958-7.961 7.958-4.398 0-7.962-3.562-7.962-7.958 0-4.395 3.564-7.957 7.962-7.957 4.397 0 7.961 3.562 7.961 7.957M172.309 177.92L189.075 177.92 189.075 121.567 172.309 121.567z" transform="translate(0 .575)"/>
            <path fill="#919191" d="M183.806 177.92L189.133 177.92 189.133 114.448 183.806 114.448z" transform="translate(0 .575)"/>
            <path fill="#B0B0B0" d="M177.696 177.92L183.808 177.92 183.808 114.448 177.696 114.448z" transform="translate(0 .575)"/>
            <path fill="#DEDEDE" d="M277.685 177.92L294.451 177.92 294.451 121.567 277.685 121.567z" transform="translate(0 .575)"/>
            <path fill="#919191" d="M289.123 177.92L294.451 177.92 294.451 114.448 289.123 114.448z" transform="translate(0 .575)"/>
            <path fill="#B0B0B0" d="M283.012 177.92L289.123 177.92 289.123 114.448 283.012 114.448z" transform="translate(0 .575)"/>
            <path fill="#DEDEDE" d="M246.454 177.92L263.22 177.92 263.22 121.567 246.454 121.567z" transform="translate(0 .575)"/>
            <path fill="#919191" d="M257.9 177.92L263.227 177.92 263.227 114.448 257.9 114.448z" transform="translate(0 .575)"/>
            <path fill="#B0B0B0" d="M251.79 177.92L257.902 177.92 257.902 114.448 251.79 114.448z" transform="translate(0 .575)"/>
            <path fill="#919191" d="M172.309 121.609L189.075 121.609 189.075 114.448 172.309 114.448zM277.685 121.609L294.451 121.609 294.451 114.448 277.685 114.448zM246.454 121.609L263.22 121.609 263.22 114.448 246.454 114.448z" transform="translate(0 .575)"/>
            <path fill="#DEDEDE" d="M205.139 177.92L221.905 177.92 221.905 121.567 205.139 121.567z" transform="translate(0 .575)"/>
            <path fill="#919191" d="M216.578 177.92L221.905 177.92 221.905 114.448 216.578 114.448z" transform="translate(0 .575)"/>
            <path fill="#B0B0B0" d="M210.467 177.92L216.578 177.92 216.578 114.448 210.467 114.448z" transform="translate(0 .575)"/>
            <path fill="#919191" d="M205.139 121.609L221.905 121.609 221.905 114.448 205.139 114.448z" transform="translate(0 .575)"/>
            <path fill="#DEDEDE" d="M160.695 185.221L306.534 185.221 306.534 177.918 160.695 177.918z" transform="translate(0 .575)"/>
            <path fill="#BFBFBF" d="M160.695 181.57L306.534 181.57 306.534 177.92 160.695 177.92z" transform="translate(0 .575)"/>
            <path fill="#DEDEDE" d="M151.141 198.703L316.087 198.703 316.087 185.223 151.141 185.223z" transform="translate(0 .575)"/>
            <path fill="#BFBFBF" d="M151.141 190.698L316.087 190.698 316.087 185.221 151.141 185.221z" transform="translate(0 .575)"/>
            <path fill="#1C1C1C" d="M209.628 118.028L258.665 118.028 258.665 101.778 209.628 101.778z" transform="translate(0 .575)"/>
            <path fill="#FFF" d="M210.63 117.245L257.509 117.245 257.509 102.56 210.63 102.56z" transform="translate(0 .575)"/>
            <path fill="#000" d="M217.919 113.252c.223.03.488.03.872.03 1.022 0 1.925-.384 1.925-1.435 0-1.007-.903-1.405-2.027-1.405h-.77v2.81zm0-4.423h.74c1.184 0 1.82-.489 1.82-1.229 0-.755-.578-1.153-1.597-1.153-.489 0-.772.028-.963.058v2.324zm-2.236-3.817c.593-.119 1.791-.207 2.917-.207 1.376 0 2.22.132 2.946.562.694.37 1.199 1.05 1.199 1.952 0 .888-.517 1.717-1.643 2.13v.03c1.138.312 1.983 1.169 1.983 2.457 0 .902-.413 1.612-1.036 2.116-.726.577-1.94.903-3.923.903-1.11 0-1.94-.075-2.443-.15v-9.793zM229.423 110.604l-.623-2.116c-.177-.591-.354-1.331-.503-1.924h-.028c-.15.593-.296 1.347-.46 1.924l-.592 2.116h2.206zm-2.534 1.686l-.71 2.56h-2.337l3.047-9.972h2.962l3.093 9.973h-2.427l-.768-2.56h-2.86zM234.278 114.85v-9.972h2.634l2.073 3.656c.592 1.049 1.185 2.293 1.63 3.416h.045c-.15-1.316-.195-2.663-.195-4.158v-2.914h2.074v9.973h-2.37l-2.13-3.847c-.592-1.065-1.244-2.352-1.734-3.522l-.044.015c.06 1.316.09 2.723.09 4.35v3.004h-2.073zM244.492 104.878h2.236v4.41h.045c.221-.386.458-.74.681-1.095l2.265-3.315h2.769l-3.304 4.247 3.48 5.726h-2.634l-2.443-4.305-.859 1.05v3.255h-2.236v-9.973z" transform="translate(0 .575)"/>
            <path fill="#4D4D4D" d="M239.122 140.222h-9.952v-8.37c0-2.72 2.206-4.924 4.926-4.924h.099c2.721 0 4.927 2.205 4.927 4.924v8.37z" transform="translate(0 .575)"/>
            <path fill="#77A7FB" d="M238.56 139.47h-8.828v-7.422c0-2.412 1.956-4.368 4.37-4.368h.088c2.413 0 4.37 1.956 4.37 4.368v7.423z" transform="translate(0 .575)"/>
            <path fill="#4D4D4D" d="M229.733 133.113L238.56 133.113 238.56 132.534 229.733 132.534z" transform="translate(0 .575)"/>
            <path fill="#4D4D4D" d="M233.866 139.789L234.426 139.789 234.426 127.468 233.866 127.468zM201.93 140.222h-9.952v-8.37c0-2.72 2.204-4.924 4.925-4.924h.1c2.72 0 4.926 2.205 4.926 4.924v8.37z" transform="translate(0 .575)"/>
            <path fill="#77A7FB" d="M201.367 139.47h-8.827v-7.422c0-2.412 1.956-4.368 4.369-4.368h.088c2.414 0 4.37 1.956 4.37 4.368v7.423z" transform="translate(0 .575)"/>
            <path fill="#4D4D4D" d="M192.539 133.113L201.367 133.113 201.367 132.534 192.539 132.534z" transform="translate(0 .575)"/>
            <path fill="#4D4D4D" d="M196.673 139.789L197.233 139.789 197.233 127.468 196.673 127.468zM275.438 140.222h-9.952v-8.37c0-2.72 2.204-4.924 4.926-4.924h.099c2.72 0 4.927 2.205 4.927 4.924v8.37z" transform="translate(0 .575)"/>
            <path fill="#77A7FB" d="M274.875 139.47h-8.827v-7.422c0-2.412 1.956-4.368 4.37-4.368h.088c2.413 0 4.37 1.956 4.37 4.368v7.423z" transform="translate(0 .575)"/>
            <path fill="#4D4D4D" d="M266.048 133.113L274.875 133.113 274.875 132.534 266.048 132.534z" transform="translate(0 .575)"/>
            <path fill="#4D4D4D" d="M270.181 139.789L270.741 139.789 270.741 127.468 270.181 127.468z" transform="translate(0 .575)"/>
            <path fill="#42291F" d="M225.54 177.92L242.752 177.92 242.752 155.534 225.54 155.534z" transform="translate(0 .575)"/>
            <path fill="#663F30" d="M226.243 177.92L242.048 177.92 242.048 156.477 226.243 156.477z" transform="translate(0 .575)"/>
            <path fill="#42291F" d="M233.879 177.92L234.412 177.92 234.412 156.477 233.879 156.477z" transform="translate(0 .575)"/>
            <path fill="#4D2F24" d="M235.508 164.53L240.867 164.53 240.867 157.247 235.508 157.247zM235.508 172.739L240.867 172.739 240.867 165.456 235.508 165.456zM235.508 176.86L240.867 176.86 240.867 173.739 235.508 173.739zM227.373 164.53L232.732 164.53 232.732 157.247 227.373 157.247zM227.373 172.739L232.732 172.739 232.732 165.456 227.373 165.456zM227.373 176.86L232.732 176.86 232.732 173.739 227.373 173.739z" transform="translate(0 .575)"/>
            <path fill="#696969" d="M433.058 222.073L29.347 222.073 54.772 204.521 407.631 204.521z" transform="translate(0 .575)"/>
            <path fill="#C7C157" d="M429.667 207.884L29.347 207.884 34.749 205.555 425.006 205.555zM454.458 218.684L0 218.684 5.403 216.355 449.797 216.355z" transform="translate(0 .575)"/>
        </g>
        <path fill="#404040" d="M0.86 2.902L61.588 2.902 61.588 0.432 0.86 0.432z" transform="translate(309.825 212.915)"/>
        <g>
            <path fill="#1A1A1A" d="M210.509 48.78L259.141 48.78 259.141 44.928 210.509 44.928z" transform="translate(106.226 162.485)"/>
            <path fill="#425F8A" d="M225.672 39.891L230.507 32.719 250.272 32.719 253.227 39.578z" transform="translate(106.226 162.485)"/>
            <path fill="#C0392B" d="M239.926 39.366c-.466 0-.845-.379-.845-.846v-4.937c0-.467.379-.844.845-.844h8.094l1.845 6.627h-9.94zm26.07 2.58c-1.005-1.329-12.196-1.65-12.196-1.65s-.127-.365-.336-.93h-2.594c-.345 0-.646-.228-.738-.559l-1.689-6.068h2.07c-.259-.407-.503-.736-.724-.918-1.479-1.21-17.338-.812-18.693 0-.22.134-.53.462-.887.897h7.704c.405 0 .73.34.71.743l-.248 5.309c-.02.371-.323.669-.694.678l-12.108.32-.252.423s-19.983 2.594-21.248 4.02c-1.268 1.428.885 5.328.885 5.328h6.067c0-2.247 1.822-4.068 4.069-4.068 2.248 0 4.068 1.82 4.068 4.068h30.377c0-2.247 1.822-4.068 4.068-4.068 2.249 0 4.07 1.82 4.07 4.068h7.723s1.599-6.264.595-7.593z" transform="translate(106.226 162.485)"/>
            <path fill="#474747" d="M207.91 49.265h-4.297c-.26 0-.47-.211-.47-.47v-.822c0-.26.21-.47.47-.47h4.296c.26 0 .471.21.471.47v.823c0 .258-.21.469-.47.469M266.61 49.265h-4.297c-.26 0-.47-.211-.47-.47v-.822c0-.26.21-.47.47-.47h4.296c.26 0 .471.21.471.47v.823c0 .258-.21.469-.47.469" transform="translate(106.226 162.485)"/>
            <path fill="#FDE3A7" d="M208.44 46.682h-4.766v-1.796h4.256c.173 0 .334.089.43.23l.51.761c.228.343-.018.805-.43.805" transform="translate(106.226 162.485)"/>
            <path fill="#96281B" d="M261.306 46.723h4.766l.255-1.796h-4.512c-.175 0-.334.087-.431.23l-.509.761c-.228.342.016.805.43.805" transform="translate(106.226 162.485)"/>
            <path fill="#2B2B2B" d="M211.4 49.539c0 2.049 1.663 3.712 3.713 3.712 2.054 0 3.72-1.663 3.72-3.712 0-2.053-1.666-3.716-3.72-3.716-2.05 0-3.712 1.663-3.712 3.716" transform="translate(106.226 162.485)"/>
            <path fill="gray" d="M212.556 49.539c0 1.412 1.146 2.557 2.559 2.557 1.414 0 2.561-1.145 2.561-2.557 0-1.414-1.147-2.557-2.561-2.557-1.413 0-2.559 1.143-2.559 2.557" transform="translate(106.226 162.485)"/>
            <path fill="#666" d="M213.44 49.539c0 .925.748 1.676 1.674 1.676.928 0 1.68-.75 1.68-1.676 0-.927-.752-1.678-1.68-1.678-.926 0-1.675.75-1.675 1.678" transform="translate(106.226 162.485)"/>
            <path fill="#2B2B2B" d="M249.871 49.539c0 2.049 1.661 3.712 3.715 3.712 2.052 0 3.716-1.663 3.716-3.712 0-2.053-1.664-3.716-3.716-3.716-2.054 0-3.715 1.663-3.715 3.716" transform="translate(106.226 162.485)"/>
            <path fill="gray" d="M251.026 49.539c0 1.412 1.147 2.557 2.558 2.557 1.417 0 2.562-1.145 2.562-2.557 0-1.414-1.145-2.557-2.562-2.557-1.41 0-2.558 1.143-2.558 2.557" transform="translate(106.226 162.485)"/>
            <path fill="#666" d="M251.91 49.539c0 .925.749 1.676 1.675 1.676s1.68-.75 1.68-1.676c0-.927-.754-1.678-1.68-1.678-.926 0-1.675.75-1.675 1.678" transform="translate(106.226 162.485)"/>
            <path fill="#404040" d="M54.44 51.244L5.04 51.244 1.855 53.716 56.593 53.716z" transform="translate(106.226 162.485)"/>
            <path fill="#1A1A1A" d="M7.985 49.267L49.632 49.267 49.632 45.536 7.985 45.536z" transform="translate(106.226 162.485)"/>
            <path fill="#425F8A" d="M17.209 40.656L21.894 33.708 41.041 33.708 43.905 40.352z" transform="translate(106.226 162.485)"/>
            <path fill="#22313F" d="M31.017 40.148c-.451 0-.818-.368-.818-.82v-4.782c0-.452.367-.818.818-.818h7.843l1.788 6.42h-9.63zm25.257 2.498C55.302 41.36 44.46 41.05 44.46 41.05s-.126-.356-.327-.901H41.62c-.333 0-.625-.223-.715-.543l-1.636-5.877h2.006c-.25-.396-.487-.715-.701-.888-1.434-1.177-16.798-.79-18.108 0-.214.127-.517.446-.86.867h7.462c.393 0 .706.329.689.722l-.243 5.142c-.018.36-.31.646-.67.657l-11.73.307c-.152.253-.244.41-.244.41s-13.744.337-14.973 1.717c-1.227 1.384.71 7.34.71 7.34h5.878c0-2.176 1.763-3.94 3.94-3.94 2.179 0 3.944 1.764 3.944 3.94h23.96c0-2.176 1.768-3.94 3.943-3.94 2.178 0 3.945 1.764 3.945 3.94h7.482s1.545-6.07.575-7.356z" transform="translate(106.226 162.485)"/>
            <path fill="#474747" d="M5.467 49.735H1.303c-.25 0-.455-.202-.455-.453v-.797c0-.253.205-.456.455-.456h4.164c.251 0 .453.203.453.456v.797c0 .251-.202.453-.453.453M56.87 49.735h-4.165c-.25 0-.453-.202-.453-.453v-.797c0-.253.204-.456.453-.456h4.164c.252 0 .455.203.455.456v.797c0 .251-.203.453-.455.453" transform="translate(106.226 162.485)"/>
            <path fill="#FDE3A7" d="M5.98 47.212H1.653l-.165-2.693h3.998c.166 0 .324.13.418.345l.492 1.141c.221.513-.018 1.207-.418 1.207" transform="translate(106.226 162.485)"/>
            <path fill="#96281B" d="M51.73 47.273h4.618l.244-2.693h-4.37c-.166 0-.323.129-.417.345l-.492 1.141c-.223.515.018 1.207.418 1.207" transform="translate(106.226 162.485)"/>
            <path fill="#2B2B2B" d="M8.848 50.003c0 1.985 1.61 3.597 3.598 3.597 1.99 0 3.602-1.612 3.602-3.597 0-1.987-1.612-3.6-3.602-3.6-1.989 0-3.598 1.613-3.598 3.6" transform="translate(106.226 162.485)"/>
            <path fill="gray" d="M9.97 50.003c0 1.368 1.108 2.477 2.474 2.477 1.372 0 2.484-1.11 2.484-2.477 0-1.372-1.112-2.48-2.484-2.48-1.366 0-2.475 1.108-2.475 2.48" transform="translate(106.226 162.485)"/>
            <path fill="#666" d="M10.823 50.003c0 .895.727 1.622 1.622 1.622.899 0 1.628-.727 1.628-1.622 0-.897-.73-1.626-1.628-1.626-.895 0-1.622.729-1.622 1.626" transform="translate(106.226 162.485)"/>
            <path fill="#2B2B2B" d="M40.651 50.003c0 1.985 1.611 3.597 3.6 3.597 1.988 0 3.6-1.612 3.6-3.597 0-1.987-1.612-3.6-3.6-3.6-1.989 0-3.6 1.613-3.6 3.6" transform="translate(106.226 162.485)"/>
            <path fill="gray" d="M41.773 50.003c0 1.368 1.11 2.477 2.476 2.477 1.37 0 2.484-1.11 2.484-2.477 0-1.372-1.113-2.48-2.484-2.48-1.366 0-2.476 1.108-2.476 2.48" transform="translate(106.226 162.485)"/>
            <path fill="#666" d="M42.628 50.003c0 .895.726 1.622 1.622 1.622.897 0 1.628-.727 1.628-1.622 0-.897-.73-1.626-1.628-1.626-.896 0-1.622.729-1.622 1.626" transform="translate(106.226 162.485)"/>
            <path fill="#404040" d="M125.768 46.451L75.75 46.451 72.565 48.923 127.921 48.923z" transform="translate(106.226 162.485)"/>
            <path fill="#1A1A1A" d="M79.82 44.473L121.469 44.473 121.469 40.743 79.82 40.743z" transform="translate(106.226 162.485)"/>
            <path fill="#425F8A" d="M112.243 35.864L107.556 28.917 88.411 28.917 85.548 35.559z" transform="translate(106.226 162.485)"/>
            <path fill="#59ABE3" d="M88.804 35.355l1.788-6.42h7.843c.452 0 .816.366.816.82v4.78c0 .454-.364.82-.816.82h-9.631zm-15.05 9.854h7.483c0-2.176 1.765-3.94 3.941-3.94 2.178 0 3.943 1.764 3.943 3.94h23.963c0-2.176 1.765-3.94 3.942-3.94 2.178 0 3.941 1.764 3.941 3.94h5.876s-1.037-6.423-2.264-7.805c-1.227-1.382-11.996-1.25-11.996-1.25s-.092-.157-.245-.412l-11.729-.308c-.361-.008-.653-.297-.67-.656l-.243-5.142c-.018-.393.295-.72.688-.72h7.463c-.344-.422-.647-.74-.86-.87-1.31-.788-16.675-1.174-18.109 0-.214.176-.451.494-.7.89h2.005l-1.636 5.877c-.09.319-.382.542-.715.542H85.32c-.202.547-.328.9-.328.9s-7.75.1-8.723 1.386c-.97 1.288-2.515 7.568-2.515 7.568z" transform="translate(106.226 162.485)"/>
            <path fill="#474747" d="M122.547 44.943h4.164c.25 0 .455-.203.455-.455v-.796c0-.251-.206-.455-.455-.455h-4.164c-.252 0-.454.204-.454.455v.796c0 .252.202.455.454.455M73.892 44.943h4.164c.251 0 .455-.203.455-.455v-.796c0-.251-.204-.455-.455-.455h-4.164c-.25 0-.455.204-.455.455v.796c0 .252.205.455.455.455" transform="translate(106.226 162.485)"/>
            <path fill="#FDE3A7" d="M123.473 42.42h2.815l-.67-2.694h-1.653c-.167 0-.324.13-.418.345l-.49 1.141c-.223.514.016 1.207.416 1.207" transform="translate(106.226 162.485)"/>
            <path fill="#96281B" d="M77.722 42.48h-3.276l.873-2.693h1.91c.167 0 .325.13.418.345l.49 1.141c.224.515-.015 1.207-.415 1.207" transform="translate(106.226 162.485)"/>
            <path fill="#2B2B2B" d="M120.604 45.21c0 1.985-1.61 3.597-3.597 3.597-1.99 0-3.603-1.612-3.603-3.597 0-1.987 1.613-3.6 3.603-3.6 1.988 0 3.597 1.613 3.597 3.6" transform="translate(106.226 162.485)"/>
            <path fill="gray" d="M119.483 45.21c0 1.37-1.108 2.477-2.477 2.477-1.37 0-2.482-1.107-2.482-2.477 0-1.371 1.112-2.48 2.482-2.48 1.369 0 2.477 1.109 2.477 2.48" transform="translate(106.226 162.485)"/>
            <path fill="#666" d="M118.63 45.21c0 .897-.728 1.623-1.624 1.623-.898 0-1.627-.726-1.627-1.623s.73-1.626 1.627-1.626c.896 0 1.623.729 1.623 1.626" transform="translate(106.226 162.485)"/>
            <path fill="#2B2B2B" d="M88.801 45.21c0 1.985-1.611 3.597-3.6 3.597-1.988 0-3.6-1.612-3.6-3.597 0-1.987 1.612-3.6 3.6-3.6 1.989 0 3.6 1.613 3.6 3.6" transform="translate(106.226 162.485)"/>
            <path fill="gray" d="M87.68 45.21c0 1.37-1.11 2.477-2.478 2.477-1.37 0-2.482-1.107-2.482-2.477 0-1.371 1.112-2.48 2.482-2.48 1.369 0 2.477 1.109 2.477 2.48" transform="translate(106.226 162.485)"/>
            <path fill="#666" d="M86.824 45.21c0 .897-.725 1.623-1.621 1.623-.9 0-1.63-.726-1.63-1.623s.73-1.626 1.63-1.626c.896 0 1.621.729 1.621 1.626" transform="translate(106.226 162.485)"/>
            <path fill="#0F0F0F" d="M68.824 36.084L69.847 36.578 69.847 36.811 67.724 36.811 67.724 36.084zM66.625 36.084L65.603 36.578 65.603 36.811 67.724 36.811 67.724 36.084z" transform="translate(106.226 162.485)"/>
            <path fill="#4385F5" d="M66.094 29.067L66.589 36.085 67.724 36.085 68.824 36.085 69.357 29.067 69.052 27.485 66.416 27.485z" transform="translate(106.226 162.485)"/>
            <path fill="#BD8779" d="M67.207 23.803L68.261 23.803 68.261 22.554 67.207 22.554z" transform="translate(106.226 162.485)"/>
            <path fill="#FFB7A4" d="M65.939 29.45l.088-.123-.168-.251-.02-.002.025.002.045-2.067v-.426l.15-.984-.657-.156-.163 1.212.186 2.414c-.016.23-.186.463-.16.592l.413.407c.146-.063.339-.178.417-.378l-.156-.24z" transform="translate(106.226 162.485)"/>
            <path fill="#C99182" d="M66.059 25.598L65.935 26.407 65.294 26.26 65.402 25.443z" transform="translate(106.226 162.485)"/>
            <path fill="#FFB7A4" d="M69.55 29.53l-.089-.12.168-.253h.02-.025l-.042-2.065v-.426l-.15-.986.654-.154.163 1.212-.184 2.414c.014.228.186.463.157.59l-.412.408c-.145-.064-.338-.177-.414-.377l.154-.243z" transform="translate(106.226 162.485)"/>
            <path fill="#C99182" d="M69.431 25.68L69.553 26.49 70.196 26.342 70.086 25.526z" transform="translate(106.226 162.485)"/>
            <path fill="#E87E04" d="M70.054 25.075c-.008-.844-.312-1.235-.312-1.235-.028-.292-1.365-.55-1.383-.532l-.618.22-.633-.22c-.016-.02-1.339.24-1.369.532 0 0-.17.352-.308 1.24v.003l-.002.008-.19 1.009.854.196.12-1.205h.004l-.124 3.73h3.256l-.085-3.73h.003l.183 1.315.756-.133-.152-1.198z" transform="translate(106.226 162.485)"/>
            <path fill="#FFB7A4" d="M66.928 22.037L66.6 21.821 66.804 21.51zM68.563 22.037L68.89 21.821 68.686 21.51z" transform="translate(106.226 162.485)"/>
            <path fill="#663F30" d="M67.741 20.259c-.604 0-.857.272-.963.563l-.005.003-.006.023c-.108.32-.039.66-.037.68l.046.023c.082.541.264 1.17.406 1.17h1.095c.15 0 .38-.599.406-1.163l.069-.014s.274-1.285-1.011-1.285" transform="translate(106.226 162.485)"/>
            <path fill="#138C75" d="M69.075 24.523L68.286 24.388 68.505 23.307 69.254 23.473zM66.484 24.554L66.167 23.549 66.932 23.308 67.247 24.313zM69.396 27.756L68.396 27.369 68.612 26.597 69.504 26.848zM66.094 27.844L65.881 27.124 66.906 26.625 67.26 27.343z" transform="translate(106.226 162.485)"/>
            <path fill="#16A085" d="M68.467 27.756H66.98c-.32 0-.58-.26-.58-.58v-2.55c0-.32.26-.58.58-.58h1.487c.32 0 .58.26.58.58v2.55c0 .32-.26.58-.58.58" transform="translate(106.226 162.485)"/>
            <path fill="#0E6655" d="M66.4 25.323v-.697c0-.32.26-.58.58-.58h1.488c.32 0 .579.26.579.58v.697c0 .32-2.647.32-2.647 0" transform="translate(106.226 162.485)"/>
            <path fill="#0F0F0F" d="M110.976 15.303L111.927 15.76 111.927 15.977 109.954 15.977 109.954 15.303zM108.932 15.303L107.981 15.76 107.981 15.977 109.953 15.977 109.953 15.303z" transform="translate(106.226 162.485)"/>
            <path fill="#1A1A1A" d="M108.437 8.778L108.898 15.302 109.955 15.302 110.976 15.302 111.47 8.778 111.189 7.308 108.738 7.308z" transform="translate(106.226 162.485)"/>
            <path fill="#BD8779" d="M109.646 3.886L110.28 3.886 110.28 2.725 109.646 2.725z" transform="translate(106.226 162.485)"/>
            <path fill="#FFB7A4" d="M108.294 9.134l.081-.114-.154-.233-.02-.002h.026l.039-1.92V6.47l.14-.915-.611-.145-.15 1.127.17 2.244c-.012.214-.17.432-.146.55l.382.38c.137-.061.315-.166.386-.352l-.143-.224z" transform="translate(106.226 162.485)"/>
            <path fill="#C99182" d="M108.405 5.553L108.29 6.305 107.693 6.167 107.796 5.41z" transform="translate(106.226 162.485)"/>
            <path fill="#FFB7A4" d="M111.651 9.21l-.081-.112.155-.235.018-.002-.023.002-.04-1.922v-.396l-.14-.915.61-.144.15 1.128-.17 2.243c.013.213.172.43.146.55l-.382.38c-.137-.06-.316-.167-.386-.353l.143-.225z" transform="translate(106.226 162.485)"/>
            <path fill="#C99182" d="M111.54 5.629L111.655 6.381 112.252 6.243 112.149 5.486z" transform="translate(106.226 162.485)"/>
            <path fill="#FFF" d="M112.119 5.068c-.007-.785-.289-1.15-.289-1.15-.026-.27-1.483-.511-1.5-.494l-.36.482-.362-.482c-.015-.017-1.47.223-1.5.494 0 0-.158.327-.286 1.154v.002l-.002.008-.177.936.795.183.112-1.119h.003l-.044 3.348 2.957.12-.08-3.468h.002l.171 1.223.702-.124-.142-1.113z" transform="translate(106.226 162.485)"/>
            <path fill="#663F30" d="M109.068 1.72c-.136.259.17 1.158.38 1.158h1.02c.213 0 .58-.961.392-1.152-.236-.16-.82-.358-.82-.358s-.797.2-.972.352" transform="translate(106.226 162.485)"/>
            <path fill="#FFB7A4" d="M109.213 2.251L108.909 2.047 109.099 1.751zM110.733 2.251L111.037 2.047 110.849 1.751z" transform="translate(106.226 162.485)"/>
            <path fill="#FFB7A4" d="M109.963 3.137c.941 0 .84-1.716.84-1.716s-.04-.563-.82-.563c-.677 0-.844.577-.844.577s-.104 1.702.824 1.702" transform="translate(106.226 162.485)"/>
            <path fill="#663F30" d="M109.03 1.767l.17.138.033-.594s.967.179 1.128-.191c.266-.106.319.19.319.19l.067.624c.042-.167.163-.15.163-.15s.255-1.195-.94-1.195c-1.197 0-.942 1.145-.94 1.178" transform="translate(106.226 162.485)"/>
            <path fill="#0F0F0F" d="M159.025 28.096L160.002 28.567 160.002 28.788 157.975 28.788 157.975 28.096z" transform="translate(106.226 162.485)"/>
            <path fill="#0F0F0F" d="M156.926 28.096L155.951 28.567 155.951 28.788 157.976 28.788 157.976 28.096z" transform="translate(106.226 162.485)"/>
            <path fill="#1A1A1A" d="M156.418 21.396L156.892 28.095 157.976 28.095 159.024 28.095 159.534 21.396 159.243 19.885 156.726 19.885z" transform="translate(106.226 162.485)"/>
            <path fill="#BD8779" d="M157.658 16.371L158.31 16.371 158.31 15.181 157.658 15.181z" transform="translate(106.226 162.485)"/>
            <path fill="#FFB7A4" d="M156.27 21.76l.084-.114-.158-.24h-.02.024l.042-1.974v-.407l.142-.941-.625-.147-.156 1.157.176 2.306c-.013.217-.176.44-.15.564l.394.39c.138-.064.322-.172.395-.363l-.147-.23z" transform="translate(106.226 162.485)"/>
            <path fill="#C99182" d="M156.385 18.084L156.266 18.856 155.654 18.716 155.758 17.937z" transform="translate(106.226 162.485)"/>
            <path fill="#FFB7A4" d="M159.718 21.839l-.083-.115.16-.243h.017-.023l-.041-1.97v-.408l-.143-.941.625-.147.155 1.157-.175 2.306c.012.218.177.44.15.564l-.392.388c-.14-.062-.324-.17-.397-.361l.147-.23z" transform="translate(106.226 162.485)"/>
            <path fill="#C99182" d="M159.604 18.162L159.721 18.934 160.336 18.794 160.231 18.015z" transform="translate(106.226 162.485)"/>
            <path fill="#7B4791" d="M160.198 17.586c-.007-.805-.295-1.18-.295-1.18-.029-.278-1.525-.526-1.54-.506l-.37.493-.372-.493c-.016-.02-1.512.228-1.54.506 0 0-.163.336-.294 1.184l-.002.001v.011l-.255 1.481.12 2.272.662-.03.073-2.19.149-1.533h.003l-.046 3.438 3.031-.06-.076-3.378h.004l.155 1.562.076 2.28h.654l.051-2.412-.188-1.446z" transform="translate(106.226 162.485)"/>
            <path fill="#1A1A1A" d="M157.066 14.148c-.14.266.174 1.19.391 1.19h1.048c.216 0 .593-.99.4-1.184-.24-.163-.842-.367-.842-.367s-.816.206-.997.361" transform="translate(106.226 162.485)"/>
            <path fill="#FFB7A4" d="M157.215 14.684L156.903 14.478 157.097 14.181zM158.776 14.684L159.087 14.478 158.893 14.181z" transform="translate(106.226 162.485)"/>
            <path fill="#FFB7A4" d="M157.984 15.604c.968 0 .864-1.763.864-1.763s-.043-.577-.841-.577c-.698 0-.87.591-.87.591s-.106 1.749.847 1.749" transform="translate(106.226 162.485)"/>
            <path fill="#1A1A1A" d="M157.026 14.197l.174.14.035-.61s.1-.234.266-.22c.067.28.786.271.892.025.273-.108.328.193.328.193l.069.642c.044-.171.166-.152.166-.152s.262-1.228-.965-1.228c-1.228 0-.966 1.175-.965 1.21" transform="translate(106.226 162.485)"/>
            <path fill="#0F0F0F" d="M165.918 15.293L166.763 15.701 166.763 15.892 165.012 15.892 165.012 15.293zM164.103 15.293L163.26 15.701 163.26 15.892 165.011 15.892 165.011 15.293z" transform="translate(106.226 162.485)"/>
            <path fill="#1A1A1A" d="M163.665 9.5L164.074 15.292 165.012 15.292 165.918 15.292 166.358 9.5 166.106 8.194 163.932 8.194z" transform="translate(106.226 162.485)"/>
            <path fill="#BD8779" d="M164.738 5.156L165.301 5.156 165.301 4.125 164.738 4.125z" transform="translate(106.226 162.485)"/>
            <path fill="#FFB7A4" d="M163.538 9.815l.071-.1-.138-.206-.016-.002h.021l.036-1.706v-.35l.124-.814-.54-.128-.135 1.002.152 1.992c-.012.188-.154.383-.13.489l.34.336c.12-.055.279-.147.343-.312l-.128-.201z" transform="translate(106.226 162.485)"/>
            <path fill="#C99182" d="M163.636 6.637L163.534 7.304 163.004 7.182 163.094 6.51z" transform="translate(106.226 162.485)"/>
            <path fill="#FFB7A4" d="M166.518 9.883l-.072-.1.138-.206.016-.002h-.022l-.035-1.706v-.352l-.122-.812.54-.128.133 1.002-.151 1.992c.01.188.152.38.131.487l-.34.338c-.12-.055-.281-.149-.343-.313l.127-.2z" transform="translate(106.226 162.485)"/>
            <path fill="#C99182" d="M166.42 6.705L166.521 7.372 167.052 7.25 166.962 6.578z" transform="translate(106.226 162.485)"/>
            <path fill="#96281B" d="M166.933 6.205c-.006-.695-.257-1.02-.257-1.02-.023-.24-1.315-.454-1.331-.438l-.32.428-.321-.428c-.014-.016-1.307.198-1.33.437 0 0-.141.292-.255 1.026l-.001.002v.007l-.158.832.705.163.099-.995h.003l-.039 2.973 2.624.106-.069-3.079h.004l.148 1.085.625-.108-.127-.99z" transform="translate(106.226 162.485)"/>
            <path fill="#663F30" d="M164.225 3.234c-.122.23.15 1.027.338 1.027h.907c.186 0 .511-.855.345-1.021-.209-.142-.73-.319-.73-.319l-.86.313z" transform="translate(106.226 162.485)"/>
            <path fill="#FFB7A4" d="M164.353 3.761L164.084 3.558 164.252 3.261zM165.703 3.761L165.973 3.558 165.805 3.261z" transform="translate(106.226 162.485)"/>
            <path fill="#FFB7A4" d="M165.018 4.492c.837 0 .747-1.523.747-1.523s-.037-.5-.728-.5c-.602 0-.75.512-.75.512s-.092 1.511.73 1.511" transform="translate(106.226 162.485)"/>
            <path fill="#663F30" d="M164.19 3.276l.15.124.03-.53s.86.16 1.003-.17c.235-.091.281.167.281.167l.062.557.144-.134s.226-1.06-.836-1.06-.836 1.016-.834 1.046" transform="translate(106.226 162.485)"/>
            <path fill="#E6E6E6" d="M115.796 15.479L116.494 15.82 116.494 15.979 115.046 15.979 115.046 15.479zM114.295 15.479L113.598 15.82 113.598 15.979 115.046 15.979 115.046 15.479z" transform="translate(106.226 162.485)"/>
            <path fill="#22A8E6" d="M113.508 9.433L114.296 15.48 115.046 15.48 115.797 15.48 116.656 9.375 116.188 8.085 113.92 8.085z" transform="translate(106.226 162.485)"/>
            <path fill="#262626" d="M114.132 2.564c-.141.265.32 1.097 0 1.442.218 0 .88.388 1.918-.042-.372-.259.118-1.2-.075-1.395-.242-.162-.844-.368-.844-.368s-.818.206-.999.363" transform="translate(106.226 162.485)"/>
            <path fill="#BD8779" d="M114.726 4.533L115.379 4.533 115.379 3.597 114.726 3.597z" transform="translate(106.226 162.485)"/>
            <path fill="#FFB7A4" d="M113.422 9.313l.07-.093-.132-.2h-.016.02l-.345-.004c-.011.18-.146.363-.124.464l.322.32.326-.297-.12-.19z" transform="translate(106.226 162.485)"/>
            <path fill="#943838" d="M113.822 4.369c-.3.023-.835 2.91-.835 2.91l-.094 1.906.616.01-.002-1.802.62-1.964s-.108-1.066-.305-1.06" transform="translate(106.226 162.485)"/>
            <path fill="#FFB7A4" d="M116.664 9.313l-.07-.093.132-.2h.015-.019l.345-.004c.01.18.145.363.124.464l-.322.32-.326-.297.12-.19z" transform="translate(106.226 162.485)"/>
            <path fill="#943838" d="M116.263 4.369c.301.023.836 2.91.836 2.91l.094 1.906-.616.01.002-1.802-.62-1.964s.108-1.066.304-1.06" transform="translate(106.226 162.485)"/>
            <path fill="#FFB7A4" d="M114.281 3.1L113.968 2.894 114.164 2.595zM115.845 3.1L116.159 2.894 115.963 2.595z" transform="translate(106.226 162.485)"/>
            <path fill="#FFB7A4" d="M115.052 4.022c1.229-.51.866-1.766.866-1.766s-.043-.579-.843-.579c-.7 0-.871.593-.871.593s-.331 1.29.848 1.752" transform="translate(106.226 162.485)"/>
            <path fill="#262626" d="M114.093 2.612l.173.142.036-.613s.456.6 1.368.453c-.168-.392.119-.454.119-.454l.07.644c.045-.174.167-.156.167-.156s.264-1.228-.968-1.228c-1.229 0-.967 1.177-.965 1.212" transform="translate(106.226 162.485)"/>
            <path fill="#B53463" d="M115.049 3.698L115.298 3.566 115.123 3.462 115.049 3.504 114.976 3.462 114.798 3.566z" transform="translate(106.226 162.485)"/>
            <path fill="#C94C4C" d="M113.912 7.823l-.237.72h2.774l-.27-.81s-.146-.949-.127-1.918l.162-.423-.105-.343c.037-.25.09-.484.17-.68l-.8-.235h-.062l-.322.378-.043.022-.044-.022-.322-.378h-.062l-.802.235c.067.221.117.453.152.692l-.096.33.161.424c.04 1.061-.127 2.008-.127 2.008" transform="translate(106.226 162.485)"/>
            <path fill="#4F4F4F" d="M130.036 22.823L130.733 23.166 130.733 23.329 129.285 23.329 129.285 22.823zM128.535 22.823L127.836 23.166 127.836 23.329 129.284 23.329 129.284 22.823z" transform="translate(106.226 162.485)"/>
            <path fill="#FFB7A4" d="M130.903 16.536l-.069-.095.131-.202.014-.002h-.017l.345-.003c.01.182.145.37.124.472l-.324.326c-.114-.052-.266-.142-.324-.303l.12-.193zM127.662 16.536l.069-.095-.131-.202-.014-.002h.017l-.345-.003c-.01.182-.145.37-.124.472l.324.326c.114-.052.266-.142.326-.303l-.122-.193z" transform="translate(106.226 162.485)"/>
            <path fill="#D73D32" d="M127.747 16.659L128.535 22.824 129.286 22.824 130.036 22.824 130.895 16.598 130.428 15.282 128.16 15.282z" transform="translate(106.226 162.485)"/>
            <path fill="#BD8779" d="M128.967 11.661L129.618 11.661 129.618 10.707 128.967 10.707z" transform="translate(106.226 162.485)"/>
            <path fill="#FFB7A4" d="M128.522 10.2L128.208 9.991 128.402 9.687zM130.085 10.2L130.398 9.991 130.203 9.687z" transform="translate(106.226 162.485)"/>
            <path fill="#FFF" d="M128.152 15.017l-.237.735h2.774l-.269-.827s-.147-.968-.13-1.957l.162-.43-.103-.35c.036-.255.09-.494.17-.694l-.8-.24h-.855l-.802.24c.067.225.117.464.152.704l-.096.34.162.43c.038 1.083-.128 2.05-.128 2.05" transform="translate(106.226 162.485)"/>
            <path fill="#4385F5" d="M128.062 11.494c-.301.025-.836 2.968-.836 2.968l-.094 1.943.618.01-.003-1.836.62-2.003s-.109-1.087-.305-1.082M130.503 11.494c.301.025.836 2.968.836 2.968l.094 1.943-.618.01.003-1.836-.62-2.003s.109-1.087.305-1.082" transform="translate(106.226 162.485)"/>
            <path fill="#EA4D20" d="M130.24 9.722l.026-.002s.263-1.252-.968-1.252c-1.23 0-.968 1.2-.965 1.235l.025.014c-.067.318.312 1.08.014 1.407.218 0 .878.394 1.918-.043-.346-.244.044-1.08-.05-1.359" transform="translate(106.226 162.485)"/>
        </g>
    </g>
</svg>
