<svg xmlns="http://www.w3.org/2000/svg" width="40" height="31" viewBox="0 0 40 31">
    <path fill="#00799E" fill-rule="evenodd" d="M14.327 31H0V20.752c0-4.147.365-7.419 1.096-9.815.731-2.397 2.082-4.547 4.054-6.45C7.12 2.583 9.636 1.087 12.696 0L15.5 5.914c-2.855.952-4.903 2.278-6.144 3.977-1.24 1.7-1.895 3.96-1.963 6.782h6.934V31zm23.913 0H23.913V20.752c0-4.181.365-7.461 1.096-9.84.73-2.38 2.09-4.522 4.079-6.425 1.988-1.904 4.495-3.4 7.52-4.487l2.805 5.914c-2.855.952-4.903 2.278-6.144 3.977-1.24 1.7-1.895 3.96-1.963 6.782h6.934V31z" opacity=".502"/>
</svg>
