<svg xmlns="http://www.w3.org/2000/svg" xmlns:xlink="http://www.w3.org/1999/xlink" width="93" height="88" viewBox="0 0 93 88">
    <defs>
        <path id="prefix__a" d="M0.568 64.286L59.483 64.286 59.483 0.188 0.568 0.188 0.568 64.286z"/>
        <path id="prefix__c" d="M92.361 38.724L92.361 0.04 0.002 0.04 0.002 38.724 92.361 38.724z"/>
        <path id="prefix__e" d="M46.253 0.04L0.084 0.04 0.084 38.719 46.253 38.719 46.253 0.04z"/>
    </defs>
    <g fill="none" fill-rule="evenodd">
        <g transform="translate(14.026 23.678)">
            <mask id="prefix__b" fill="#fff">
                <use xlink:href="#prefix__a"/>
            </mask>
            <path fill="#BB7329" d="M51.949 6.39c10.718 8.52 9.911 27.468-1.847 42.312C38.297 63.534 20.052 68.7 9.333 60.18c-2.15-1.695-5.388-3.8-6.627-6.207-4.956-9.666-.959-24.195 8.509-36.082C20.67 5.922 32.453-1.99 43.03.721c2.548.666 6.825 4.044 8.918 5.669" mask="url(#prefix__b)"/>
        </g>
        <path fill="#FAAD18" d="M61.5 26.735c10.719 8.497 9.912 27.432-1.87 42.3-11.782 14.844-30.039 19.987-40.745 11.49-10.742-8.522-9.9-27.457 1.847-42.312 11.781-14.845 30.027-20 40.768-11.478"/>
        <path fill="#FEDB91" d="M57.392 30.222c9.117 7.212 8.427 23.225-1.543 35.802-9.958 12.576-25.387 16.901-34.527 9.713-9.07-7.2-8.369-23.237 1.601-35.802 9.947-12.565 25.399-16.913 34.469-9.713"/>
        <path fill="#FAAD18" d="M40.103 32.251l19.881 12.355c.106.094.129.175.059.28l-1.169 1.894c-.07.105-.164.129-.269.059l-7.492-4.652-.105.163c.713 1.24.806 2.934.292 5.073l-.292.666 4.909 3.062c.105.082.128.176.07.27l-1.18 1.893c-.07.105-.152.128-.27.058l-4.733-2.933c-1.31 2.115-3.892 3.366-7.726 3.763-3.12-.117-5.155-.467-6.125-1.075-.035.058-.105.047-.222-.024l2.08 20.467-.105.175-4.055-2.525c-.035-.023-.842-7.948-2.396-23.75l.058-.082 1.274.795c4.547 2.817 8.287 2.887 11.22.187.305-.363.527-.655.679-.9l.152-.246-9.982-6.206c-.117-.07-.129-.164-.07-.28l1.18-1.883c.082-.105.176-.128.27-.07l9.9 6.16c.455-1.484.385-2.969-.211-4.442-1.017-1.741-2.151-3.003-3.39-3.775l-3.612-2.244c-.117-.07-.14-.164-.07-.28l1.18-1.894c.083-.094.176-.117.27-.059"/>
        <g transform="translate(0 .133)">
            <mask id="prefix__d" fill="#fff">
                <use xlink:href="#prefix__c"/>
            </mask>
            <path fill="#353535" d="M46.171.036L.002 16.936v4.057l20.221 5.458v12.273s8.088-2.291 25.948-3.436c17.45 1.04 25.948 3.436 25.948 3.436V26.45l20.244-5.458v-4.056L46.171.036z" mask="url(#prefix__d)"/>
        </g>
        <path fill="#606160" d="M87.789 48.856c.771-.152 1.39-.842 1.39-1.672 0-.97-.783-1.73-1.706-1.73h-.304V14.072c0-1.285-1.052-2.349-2.35-2.349-1.32 0-2.407 1.064-2.407 2.35v31.383c-.923 0-1.695.76-1.695 1.73 0 .748.48 1.355 1.134 1.6-2.326 5.015-3.834 8.744-3.191 9.293 4.43 3.904 7.831 3.904 12.284 0 .62-.55-.818-4.22-3.155-9.222"/>
        <g transform="translate(45.584 .133)">
            <mask id="prefix__f" fill="#fff">
                <use xlink:href="#prefix__e"/>
            </mask>
            <path fill="#262626" d="M.084 35.283c17.427 1.04 25.948 3.436 25.948 3.436V26.46l20.221-5.47v-4.057L.084.031v35.252z" mask="url(#prefix__f)"/>
        </g>
        <path fill="#262626" d="M87.229 48.856c.795-.152 1.45-.842 1.45-1.672 0-.97-.784-1.73-1.754-1.73h-.269V14.072c0-1.285-1.064-2.349-2.396-2.349-1.286 0-2.35 1.064-2.35 2.35v31.383c-.958 0-1.741.76-1.741 1.73 0 .748.49 1.355 1.169 1.6-2.35 5.015-3.834 8.744-3.203 9.293 4.442 3.904 7.831 3.904 12.273 0 .643-.55-.818-4.22-3.18-9.222M45.783 39.987c9.526 0 18.655.771 27.047 2.162-.222-1.274-.55-2.513-.97-3.693-.024-.012-.199-.047-.491-.129v.14s-8.44-2.372-25.68-3.436c-17.625 1.145-25.62 3.401-25.714 3.436-.958 1.274-1.87 2.595-2.7 3.928 8.802-1.555 18.433-2.408 28.508-2.408"/>
    </g>
</svg>
