<svg xmlns="http://www.w3.org/2000/svg" xmlns:xlink="http://www.w3.org/1999/xlink" width="105" height="89" viewBox="0 0 105 89">
    <defs>
        <path id="prefix__a" d="M0.073 33.321L105.006 33.321 105.006 0.327 0.073 0.327z"/>
    </defs>
    <g fill="none" fill-rule="evenodd">
        <path fill="#CD6D28" d="M60.94 6.852L33.675 20.784 33.675 70.234 89.812 70.234 89.812 21.735 62.547 6.852z"/>
        <path fill="#BC6528" d="M61.623 9.73L36.532 22.532 36.532 67.372 86.919 67.372 86.919 23.444 61.828 9.73z"/>
        <path fill="#DB7F26" d="M36.678 41.879L51.314 41.879 51.314 37.308 36.678 37.308zM61.962 36.537L77.459 36.537 77.459 32.249 61.962 32.249zM36.678 36.537L61.19 36.537 61.19 32.249 36.678 32.249zM57.705 25.815L73.241 25.815 73.241 21.822 57.705 21.822zM61.958 15.785L72.8 15.785 61.958 9.866zM36.678 31.478L48.446 31.478 48.446 26.586 36.678 26.586zM51.995 21.051L67.505 21.051 67.505 16.57 51.995 16.57zM36.678 52.64L54.452 52.64 54.452 47.722 36.678 47.722zM36.678 57.686L43.559 57.686 43.559 53.41 36.678 53.41zM49.217 63.092L70.463 63.092 70.463 58.444 49.217 58.444zM55.223 52.64L70.72 52.64 70.72 47.722 55.223 47.722zM52.074 37.304L52.074 41.875 60.793 41.875 61.578 41.875 67.571 41.875 67.571 37.304zM61.576 46.964L77.086 46.964 77.086 42.688 61.576 42.688zM37.825 21.818L36.681 22.383 36.681 25.811 56.949 25.811 56.949 21.818zM49.217 31.478L64.714 31.478 64.714 26.586 49.217 26.586zM65.477 26.591L65.477 31.483 86.851 31.483 86.838 26.591zM49.62 15.785L61.194 15.785 61.194 9.892zM78.22 32.254L78.22 36.542 86.901 36.542 86.876 32.254zM74.007 21.818L74.007 25.811 86.816 25.811 86.816 23.449 83.82 21.818zM71.229 58.453L71.229 63.101 87.087 63.101 87.048 58.453zM68.255 16.571L68.255 21.053 82.44 21.053 74.196 16.571zM36.678 63.092L48.446 63.092 48.446 58.444 36.678 58.444zM68.371 37.304L68.371 41.875 77.09 41.875 77.849 41.875 86.941 41.875 86.903 37.304zM44.317 57.686L59.84 57.686 59.84 53.41 44.317 53.41zM36.678 46.964L60.792 46.964 60.792 42.688 36.678 42.688zM77.85 42.689L77.85 46.965 86.968 46.965 86.93 42.689zM48.104 16.571L39.307 21.053 51.229 21.053 51.229 16.571zM60.604 53.414L60.604 57.69 87.058 57.69 87.032 53.414zM71.484 47.728L71.484 52.633 87.007 52.633 86.994 47.728zM36.511 67.214L54.272 67.214 54.272 63.695 36.511 63.695zM55.017 67.214L70.527 67.214 70.527 63.695 55.017 63.695zM71.322 63.699L71.322 67.218 86.845 67.218 86.78 63.699z"/>
        <path fill="#B25A28" d="M62.028 0.115L26.7 19.478 29.092 23.909 62.028 7.1 93.806 24.486 96.198 20.056z"/>
        <path fill="#BE6428" d="M26.853 19.726L27.817 21.524 61.872 3.65 95.258 22.32 96.326 20.291 62.155 0.324z"/>
        <path fill="#9A4121" d="M45.432 66.876L45.432 39.179 60.724 31.346 61.637 31.346 76.902 39.679 76.902 66.876z"/>
        <path fill="#BE6428" d="M61.079 34.507L48.257 41.082 48.257 67.033 61.104 67.033 61.104 34.507z"/>
        <path fill="#CD6D28" d="M61.495 34.507L61.495 67.033 74.343 67.033 74.343 41.082 61.508 34.507z"/>
        <g>
            <path fill="#161616" d="M83.914 54.394h-44.46V15.55L61.64 4.238h.193l22.082 12.044v38.112zm3.022-40.436L61.832.218h-.193L36.523 13.035l-.026 44.107h47.417v.296h2.906v-.296h.026l-.026-39.254.116.065v-3.994z" transform="translate(0 9.774)"/>
            <path fill="#FCD5B6" d="M102.954 50.242s.116-.334.939-1.348c1.582-1.965-.978-3.108-2.637-3.108-2.032 0-5.002 2.209-6.649 3.313-.321.257-.733.54-1.131.758-2.251 1.567-3.614 2.876-3.614 2.876s-8.154 5.933-9.491 6.28c-1.312.333-2.52 2.542-17.966-5.69l-3.73-1.9s-2.212-2.837-7.215-7.498c-4.99-4.623-10.867-5.92-16.95-5.085-4.167-.63-20.705-3.891-26.943-4.02-8.822.514-11.176 25.374-.283 24.102 10.867-1.27 26.699 6.138 33.013 9.862 6.328 3.724 19.227 10.427 21.336 9.066 2.122-1.349 4.977-3.262 8.59-4.572 3.653-1.31 9.826-1.643 12.527-2.876 2.688-1.22 5.427-3.467 8.835-5.97 3.447-2.505 7.33-5.214 8.41-6.562 1.081-1.362 2.496-2.17 4.155-3.994 1.672-1.81-1.196-3.634-1.196-3.634" transform="translate(0 9.774)"/>
            <g transform="translate(0 9.774) translate(0 45.139)">
                <mask id="prefix__b" fill="#fff">
                    <use xlink:href="#prefix__a"/>
                </mask>
                <path fill="#E8BA9A" d="M103.28 5.142s.128-.334.95-1.348c.85-1.028.657-3.146-2.816-3.442-1.337-.128-2.443.257-3.305.758l-.424.27c-1.145.809-1.813 1.772-1.813 1.772-2.225 1.618-16.27 11.017-16.27 11.017h-.025c1.08.59 2.096 1.31 2.997 2.067 2.057 1.785 2.945 3.519 2.443 5.137-.488 1.656-1.492 3.929-5.658 3.839-4.193-.077-10.893-2.324-16.68-3.84-5.788-1.489-8.321-.513-12.642-2.003-.952-.333-1.698-.552-2.238-.667-.309 0-.605-.09-.862-.129-1.016-.09-.489.501 1.235 1.182 2.649 1.104 8.102 1.618 9.362 1.733 1.3.167.618-.334 2.855.218 2.225.553 2.38.835 2.29 1.9-.09 1.054.424.502 1.234-.05.797-.527 4.321.77 6.636 1.232 2.29.475 7.575 1.875 2.868 1.785-4.707-.128-10.558 2.414-12.308 3.647-1.736 1.181-4.68-.604-9.645-3.647-4.951-3.082-8.977-10.247-5.543-8.385.309.167.643.295 1.016.385.219 0 .489.039.862.129 2.096.205 4.398-.552 2.92-2.247-1.75-1.952-10.482-6.767-15.485-9.015-1.479-.693-17.336-1.155-27.007-1.284L.073 5.694c.18 2.453.836 4.7 1.98 6.266.335.68.875 1.272 1.75 1.605.952.553 2.122.81 3.472.642 2.405-.295 5.054-.128 7.794.296 4.257.847 9.234 2.375 13.8 4.019 4.732 1.9 8.86 4.019 11.432 5.56 6.327 3.724 19.227 10.414 21.336 9.065.321-.218.669-.436 1.041-.68-.09 0-.154 0-.218-.051 2.058-1.31 4.733-3.044 8.102-4.225 3.627-1.361 9.813-1.656 12.526-2.89 2.688-1.22 5.414-3.505 8.835-5.97 3.421-2.504 7.33-5.213 8.411-6.562 1.08-1.36 2.482-2.157 4.154-3.98 1.672-1.824-1.209-3.647-1.209-3.647" mask="url(#prefix__b)"/>
            </g>
            <path fill="#FCD5B6" d="M84.165 63.748c-1.196-1.271-2.341-1.567-3.91-2.119-.862-.282-1.698-.68-2.52-1.091-3.833-1.836-7.55-3.865-11.215-5.984-2.032-1.181-4.064-1.605-6.07-2.8 0 0-9.993-5.328-23.92-9.219C34.843 47.44 33.3 57.74 46.932 63.71c.219.09.45.167.682.257 5.388 1.682 11.15 1.31 16.629 2.697 4.617 1.194 14.686 5.098 17.889 3.66 1.234-.514 2.34-1.195 2.88-2.466.618-1.4.193-3.043-.848-4.109" transform="translate(0 9.774)"/>
            <path fill="#F7E3DC" d="M74.933 64.688c-.591 1.695-.72 3.814 2.52 4.558 3.268.77 5.312 1.451 6.406-1.168 1.196-2.89-.965-5.38-4.592-5.56-3.652-.218-3.884.937-4.334 2.17" transform="translate(0 9.774)"/>
            <path fill="#E8BA9A" d="M103.043 50.28s.128-.333.951-1.348c1.57-1.951-.99-3.107-2.623-3.107-2.032 0-5.016 2.209-6.662 3.313-.347.257-.72.5-1.119.77-2.276 1.567-3.64 2.864-3.64 2.864s-8.153 5.932-9.478 6.279c-.861.205-1.697 1.22-6.469-.385 1.274.68 2.547 1.322 3.82 1.913.849.424 1.672.796 2.546 1.104 1.544.552 2.714.835 3.884 2.119.952.963 1.376 2.401.99 3.762h2.277c1.286-.937 2.65-2.003 4.18-3.094 3.408-2.504 7.304-5.214 8.385-6.562 1.08-1.361 2.495-2.157 4.166-3.98 1.66-1.824-1.208-3.647-1.208-3.647M67.75 59.472c-.025-.09-.064-.167-.115-.257-.013 1.028-.887 4.661-1.222 5.33.566-.373 1.119-1.901 1.338-3.211.128-.72.154-1.4 0-1.862M64.925 64.048c-.103-1.348.129-3.223.888-4.7-1.48 1.477-1.518 3.352-.888 4.7M69.107 59.648c-.025 1.567-.617 4.366-1.35 5.714-.026.039-.051.129-.09.167.039 0 .064-.038.09-.038 1.57-1.143 2.058-4.02 1.35-5.843" transform="translate(0 9.774)"/>
        </g>
    </g>
</svg>
