<svg xmlns="http://www.w3.org/2000/svg" xmlns:xlink="http://www.w3.org/1999/xlink" width="84" height="89" viewBox="0 0 84 89">
    <defs>
        <path id="prefix__a" d="M40.419 24.34L40.419 0.016 0.445 0.016 0.445 24.34z"/>
    </defs>
    <g fill="none" fill-rule="evenodd">
        <path fill="#DC5839" d="M31.089 27.694L6.297 40.343 6.297 85.316 57.315 85.316 57.315 41.229 32.563 27.694z"/>
        <path fill="#DA732B" d="M31.717 30.291L8.907 41.945 8.907 82.708 54.706 82.708 54.706 42.781 31.906 30.291z"/>
        <path fill="#AE5125" d="M9.054 59.574L22.342 59.574 22.342 55.404 9.054 55.404zM32.023 54.688L46.098 54.688 46.098 50.786 32.023 50.786zM9.054 54.688L31.316 54.688 31.316 50.786 9.054 50.786zM28.179 44.965L42.283 44.965 42.283 41.302 28.179 41.302zM32.021 35.818L41.872 35.818 32.021 30.434zM9.054 50.1L19.742 50.1 19.742 45.651 9.054 45.651zM22.959 40.606L37.053 40.606 37.053 36.515 22.959 36.515zM9.054 69.317L25.18 69.317 25.18 64.868 9.054 64.868zM9.054 73.915L15.3 73.915 15.3 70.004 9.054 70.004zM20.439 78.821L39.753 78.821 39.753 74.611 20.439 74.611zM25.888 69.317L39.992 69.317 39.992 64.868 25.888 64.868zM23.03 55.397L23.03 59.567 30.969 59.567 31.666 59.567 37.134 59.567 37.134 55.397zM31.665 64.172L45.759 64.172 45.759 60.261 31.665 60.261zM10.067 41.299L9.051 41.817 9.051 44.962 27.488 44.962 27.488 41.299zM20.439 50.1L34.514 50.1 34.514 45.651 20.439 45.651zM35.222 45.643L35.222 50.092 54.635 50.092 54.635 45.643zM20.798 35.818L31.316 35.818 31.316 30.454zM46.804 50.784L46.804 54.686 54.683 54.686 54.653 50.784zM42.967 41.299L42.967 44.962 54.611 44.962 54.581 42.792 51.882 41.299zM40.43 74.609L40.43 78.819 54.853 78.819 54.813 74.609zM37.741 36.516L37.741 40.607 50.62 40.607 43.139 36.516zM9.054 78.821L19.742 78.821 19.742 74.611 9.054 74.611zM37.839 55.397L37.839 59.567 45.758 59.567 46.455 59.567 54.733 59.567 54.683 55.397zM16.007 73.915L30.081 73.915 30.081 70.004 16.007 70.004zM9.054 64.172L30.978 64.172 30.978 60.261 9.054 60.261zM46.454 60.261L46.454 64.172 54.752 64.172 54.732 60.261zM19.435 36.516L11.437 40.607 22.264 40.607 22.264 36.516zM30.784 70.006L30.784 73.917 54.819 73.917 54.789 70.006zM40.681 64.864L40.681 69.313 54.795 69.313 54.755 64.864zM8.895 82.573L25.021 82.573 25.021 79.378 8.895 79.378zM25.728 82.573L39.803 82.573 39.803 79.378 25.728 79.378zM40.511 79.374L40.511 82.569 54.635 82.569 54.585 79.374z"/>
        <path fill="#C03E27" d="M0 39.177L2.142 43.217 32.063 27.931 60.979 43.744 63.12 39.704 32.063 21.572z"/>
        <path fill="#DC5839" d="M0.134 39.391L1.001 41.034 31.929 24.782 62.269 41.76 63.235 39.919 32.198 21.767z"/>
        <path fill="#9A4121" d="M30.901 49.969L17.006 57.075 17.006 82.263 45.603 82.263 45.603 57.563 31.747 49.969z"/>
        <path fill="#CC482C" d="M19.57 58.792L19.57 82.418 31.263 82.418 31.263 52.85 31.234 52.84z"/>
        <path fill="#DC5839" d="M31.591 52.853L31.591 82.421 43.275 82.421 43.275 58.795 31.611 52.834z"/>
        <g>
            <path fill="#161616" d="M48.515 79.76h-40.4V44.44l20.16-10.29h.179l20.06 10.967V79.76zm2.759-36.762l-22.82-12.48h-.18l-22.8 11.664-.03 40.076h43.07v.289h2.67V46.57l.09.05v-3.622z" transform="translate(3.448 .041)"/>
            <g fill="#161616">
                <path d="M9.334 33.722h14.393v-2.02c-1.265.339-2.61.528-3.995.528-8.018 0-14.552-6.19-14.552-13.824 0-7.633 6.534-13.823 14.552-13.823 1.385 0 2.73.19 3.995.528V.612C22.62.383 21.476.254 20.31.224c-.269-.02-.508-.04-.777-.04C9.095.184.608 8.345.608 18.386c0 6.45 3.476 12.102 8.726 15.336" transform="translate(3.448 .041) translate(29.882 51.49)"/>
                <path d="M8.682 14.11v.15c.05.646.26 1.323.697 1.9l8.606 11.395c.698.906 1.743 1.384 2.8 1.384.706 0 1.424-.19 2.041-.637l.907-.657v-8.778L21.52 20.44l-6.554-8.679c-1.155-1.552-3.366-1.86-4.91-.696-.867.677-1.345 1.662-1.375 2.677v-.01c0 .12-.02.239 0 .358v.02z" transform="translate(3.448 .041) translate(29.882 51.49)"/>
            </g>
            <path fill="#E25D59" d="M51.345 84.328c-8.028 0-14.542-6.21-14.542-13.843 0-7.613 6.514-13.813 14.542-13.813 8.029 0 14.553 6.2 14.553 13.813 0 7.633-6.524 13.843-14.553 13.843m0-32.045c-10.458 0-18.925 8.16-18.925 18.202 0 10.061 8.467 18.212 18.925 18.212 10.46 0 18.936-8.15 18.936-18.212 0-10.042-8.477-18.202-18.936-18.202" transform="translate(3.448 .041)"/>
            <path fill="#E98A8E" d="M33.758 71.179c0-10.072 8.486-18.202 18.945-18.202 2.53 0 4.96.487 7.182 1.363-2.62-1.314-5.578-2.05-8.746-2.05-10.448 0-18.915 8.14-18.915 18.202 0 7.603 4.86 14.132 11.754 16.839-6.076-3.046-10.22-9.126-10.22-16.152" transform="translate(3.448 .041)"/>
            <path fill="#BE3837" d="M61.053 54.666c5.2 3.225 8.656 8.868 8.656 15.277 0 10.06-8.477 18.202-18.925 18.202-3.437 0-6.634-.866-9.403-2.399 2.958 1.851 6.484 2.906 10.28 2.906 10.438 0 18.914-8.13 18.914-18.202 0-6.757-3.824-12.659-9.522-15.784" transform="translate(3.448 .041)"/>
            <g transform="translate(3.448 .041) translate(39.842 56.607)">
                <mask id="prefix__b" fill="#fff">
                    <use xlink:href="#prefix__a"/>
                </mask>
                <path fill="#87AC44" d="M12.563 24.34c-1.056 0-2.122-.478-2.8-1.404L1.149 11.551C-.017 10 .3 7.81 1.845 6.645c1.534-1.174 3.725-.856 4.89.687L13.3 16.01 34.875.664c1.573-1.125 3.765-.746 4.89.826 1.126 1.572.767 3.752-.817 4.866L14.585 23.703c-.598.428-1.315.637-2.022.637" mask="url(#prefix__b)"/>
            </g>
            <path fill="#77963C" d="M79.01 61.965L54.664 79.301c-.627.428-1.334.647-2.042.647-1.055 0-2.101-.477-2.799-1.403L41.21 67.15c-.499-.667-.728-1.453-.708-2.23-.398 1.086-.269 2.33.498 3.315l8.606 11.405c.678.905 1.743 1.403 2.8 1.403.706 0 1.424-.219 2.021-.657L78.8 63.06c.906-.647 1.404-1.672 1.454-2.697-.229.617-.657 1.194-1.245 1.602" transform="translate(3.448 .041)"/>
            <path fill="#A0C355" d="M41.453 64.25c1.543-1.165 3.745-.857 4.91.686l6.554 8.678 21.585-15.346c1.584-1.115 3.765-.746 4.88.826.469.657.678 1.433.638 2.17.398-1.045.279-2.28-.408-3.265-1.126-1.582-3.317-1.94-4.891-.826L53.146 72.52l-6.564-8.678c-1.165-1.543-3.356-1.841-4.9-.667-.887.647-1.365 1.632-1.395 2.647.23-.597.598-1.144 1.166-1.572" transform="translate(3.448 .041)"/>
            <path fill="#161616" d="M63.825 77.564l6.455-4.598c.149-.936.249-1.881.249-2.856 0-.498-.03-.956-.07-1.433l-4.433 3.154c-.279 2.1-1.055 4.04-2.2 5.733" transform="translate(3.448 .041)"/>
            <path fill="#A46B44" d="M6.756 15.85C2.244 17.353-.306 21.87 1.058 25.94c1.355 4.05 6.126 6.14 10.628 4.628 1.624-.538 19.921-11.405 19.921-11.405l-1.912-6.001s-21.077 2.06-22.94 2.687" transform="translate(3.448 .041)"/>
            <path fill="#965F35" d="M31.843 9.523l-1.664.568c-.817.268-1.265 1.164-.986 1.98l2.61 7.812c.279.816 1.165 1.264 1.992 1.006l1.653-.558-3.605-10.808z" transform="translate(3.448 .041)"/>
            <path fill="#8C5630" d="M33.943.553c.817-.279 1.713.159 1.982.985l7.61 22.71c.28.826-.169 1.712-.986 1.99l-3.357 1.105c-.816.289-1.703-.149-1.982-.975l-7.62-22.71c-.268-.826.18-1.712 1.006-2L33.943.552z" transform="translate(3.448 .041)"/>
            <path fill="#8C5630" d="M33.943.553c.817-.279 1.713.159 1.982.985l7.61 22.71c.28.826-.169 1.712-.986 1.99l-3.357 1.105c-.816.289-1.703-.149-1.982-.975l-7.62-22.71c-.268-.826.18-1.712 1.006-2L33.943.552z" transform="translate(3.448 .041)"/>
            <path fill="#C3BEBE" d="M38.671 0.748L46.171 23.08 43.342 24.035 35.852 1.683z" transform="translate(3.448 .041)"/>
            <path fill="#965F35" d="M1.055 25.938c.907 2.697 3.297 4.518 6.126 4.996-1.036-.806-1.823-1.871-2.261-3.165-1.265-3.811 1.116-8.03 5.349-9.444 1.474-.508 16.036-1.99 20.31-2.399l-.887-2.756s-21.077 2.05-22.94 2.677c-4.511 1.513-7.061 6.02-5.697 10.091" transform="translate(3.448 .041)"/>
            <path fill="#965F35" d="M8.613 22.838c1.504-.507 3.168.358 3.706 1.93.538 1.573-.27 3.265-1.803 3.783-1.514.507-3.188-.349-3.715-1.941-.518-1.573.288-3.264 1.812-3.772" transform="translate(3.448 .041)"/>
            <path fill="#161616" d="M30.247 19.932c.856-.507 1.364-.806 1.364-.806l-1.912-6.01s-.637.069-1.693.168l2.24 6.648z" transform="translate(3.448 .041)"/>
            <path fill="#965E38" d="M29.624 3.702l7.61 22.71c.28.826 1.166 1.264 1.982.995l1.006-.328c-.597-.09-1.105-.478-1.294-1.075l-7.66-22.85c-.28-.816.17-1.712 1.006-2l-1.664.557c-.816.279-1.265 1.165-.986 1.99" transform="translate(3.448 .041)"/>
            <path fill="#161616" d="M34.303 20.758L35.229 20.44 31.613 9.642 30.697 9.95z" transform="translate(3.448 .041)"/>
            <path fill="#A4A3A3" d="M45.004 23.479L46.169 23.081 38.669 0.749 37.513 1.127z" transform="translate(3.448 .041)"/>
        </g>
    </g>
</svg>
