<svg xmlns="http://www.w3.org/2000/svg" xmlns:xlink="http://www.w3.org/1999/xlink" width="93" height="90" viewBox="0 0 93 90">
    <defs>
        <path id="prefix__a" d="M92.454 29.526L92.454 0.281 0.065 0.281 0.065 29.526z"/>
    </defs>
    <g fill="none" fill-rule="evenodd">
        <path fill="#FCD5B6" d="M90.648 64.094s.112-.304.84-1.207c1.38-1.73-.877-2.772-2.317-2.761-1.79.01-4.409 1.976-5.864 2.927-.298.235-.638.48-.994.678-1.992 1.41-3.187 2.58-3.187 2.58s-7.193 5.24-8.35 5.534c-1.18.289-2.248 2.27-15.842-5.016l-3.267-1.688s-1.939-2.548-6.348-6.66c-4.41-4.103-9.562-5.278-14.938-4.504-3.644-.587-18.216-3.46-23.708-3.573-7.767.475-9.854 22.51-.277 21.372 9.578-1.133 23.534 5.448 29.095 8.765 5.568 3.312 16.904 9.22 18.774 8.018 1.886-1.196 4.366-2.89 7.564-4.06 3.214-1.175 8.649-1.463 11.018-2.553 2.39-1.079 4.78-3.087 7.809-5.299 3.001-2.195 6.444-4.593 7.394-5.806.935-1.223 2.184-1.912 3.66-3.53 1.461-1.614-1.062-3.217-1.062-3.217"/>
        <g transform="translate(0 59.565)">
            <mask id="prefix__b" fill="#fff">
                <use xlink:href="#prefix__a"/>
            </mask>
            <path fill="#E8BA9A" d="M90.946 4.563s.096-.31.84-1.223c.727-.913.557-2.767-2.503-3.04-1.158-.106-2.146.23-2.916.684-.112.075-.218.14-.335.214-1.046.716-1.604 1.581-1.604 1.581-1.981 1.432-14.343 9.775-14.343 9.775l-.021-.016c.956.534 1.87 1.16 2.635 1.832 1.811 1.592 2.592 3.147 2.167 4.589-.452 1.42-1.307 3.467-5.01 3.387-3.675-.075-9.583-2.062-14.677-3.398-5.078-1.346-7.299-.48-11.134-1.79-.818-.282-1.472-.464-1.977-.581-.26-.027-.504-.065-.749-.129-.876-.064-.43.444 1.084 1.069 2.337.977 7.156 1.405 8.271 1.538 1.126.123.526-.326 2.492.166 1.976.486 2.087.774 2.013 1.714-.058.93.377.454 1.084-.048.727-.497 3.809.663 5.848 1.09 2.035.422 6.662 1.645 2.518 1.56-4.127-.091-9.28 2.158-10.831 3.237-1.535 1.084-4.128-.508-8.478-3.227-4.351-2.735-7.9-9.096-4.893-7.424.26.138.558.25.892.325.192.016.436.06.75.129 1.87.181 3.904-.492 2.576-1.998-1.53-1.726-9.206-6.03-13.631-8.018-1.312-.582-15.262-1.015-23.756-1.127l-7.193-.39c.17 2.163.728 4.156 1.737 5.55.319.614.786 1.111 1.535 1.415.84.492 1.865.722 3.06.577 2.13-.25 4.462-.117 6.874.267 3.734.759 8.122 2.11 12.138 3.574 4.186 1.683 7.83 3.568 10.083 4.92 5.567 3.311 16.903 9.214 18.79 8.023.28-.187.578-.374.897-.582l-.186-.038c1.812-1.164 4.18-2.703 7.134-3.787 3.193-1.165 8.649-1.464 11.023-2.543 2.37-1.079 4.776-3.103 7.783-5.299 3.022-2.206 6.465-4.599 7.4-5.817.95-1.212 2.199-1.912 3.66-3.52 1.476-1.624-1.047-3.22-1.047-3.22" mask="url(#prefix__b)"/>
        </g>
        <path fill="#FCD5B6" d="M74.099 76.044c-1.03-1.1-2.056-1.362-3.416-1.865-.77-.277-1.514-.614-2.242-.966-3.362-1.614-6.635-3.44-9.88-5.315-1.796-1.026-3.565-1.405-5.339-2.484 0 0-8.781-4.733-21.068-8.151-1.477 4.337-2.821 13.471 9.169 18.77.201.075.393.139.595.203 4.743 1.517 9.827 1.16 14.64 2.414 4.053 1.063 12.946 4.52 15.767 3.232 1.067-.454 2.055-1.036 2.544-2.169.515-1.266.149-2.702-.77-3.67"/>
        <path fill="#F7E3DC" d="M65.993 76.877c-.526 1.522-.653 3.37 2.22 4.06 2.88.683 4.67 1.271 5.626-1.063 1.047-2.532-.86-4.754-4.053-4.92-3.198-.17-3.416.823-3.793 1.923"/>
        <path fill="#E8BA9A" d="M90.72 64.129s.111-.305.84-1.208c1.407-1.725-.856-2.766-2.317-2.756-1.79.006-4.404 1.977-5.86 2.927-.28.235-.637.481-.987.668-2.003 1.421-3.177 2.58-3.177 2.58s-7.193 5.25-8.372 5.545c-.76.181-1.477 1.095-5.695-.337 1.121.588 2.242 1.16 3.379 1.704.727.353 1.46.684 2.22.967 1.387.502 2.396.764 3.442 1.859.84.881 1.212 2.174.856 3.344h2.002c1.137-.828 2.348-1.768 3.677-2.735 3.027-2.196 6.443-4.6 7.4-5.812.95-1.218 2.199-1.917 3.66-3.525 1.476-1.619-1.068-3.221-1.068-3.221M59.662 72.268c-.037-.096-.053-.171-.096-.235-.016.902-.786 4.134-1.1 4.748.505-.363 1.01-1.677 1.196-2.873.096-.641.112-1.245 0-1.64M57.157 76.304c-.09-1.185.117-2.836.786-4.14-1.306 1.288-1.344 2.944-.786 4.14M60.856 72.407c-.037 1.4-.558 3.856-1.195 5.08-.037.058-.053.101-.096.154.043-.026.059-.042.096-.058 1.381-.989 1.79-3.569 1.195-5.176"/>
        <path fill="#BB7329" d="M81.066 41.366c4.908 4.706 3.697 14.064-2.768 20.928-6.46 6.854-15.708 8.611-20.616 3.91-1.004-.929-2.502-2.115-3.023-3.365-2.019-5.02.595-12.056 5.79-17.547 5.19-5.534 11.358-8.942 16.452-7.142 1.233.444 3.214 2.313 4.165 3.216"/>
        <path fill="#FAAD18" d="M78.993 39.504c4.93 4.7 3.697 14.064-2.768 20.934-6.46 6.853-15.708 8.605-20.617 3.915-4.945-4.695-3.697-14.07 2.747-20.928 6.46-6.86 15.708-8.611 20.638-3.921"/>
        <path fill="#FEDB91" d="M76.825 41.066c4.186 3.98 3.14 11.89-2.332 17.708-5.477 5.811-13.28 7.286-17.461 3.317-4.186-3.974-3.145-11.907 2.332-17.713 5.472-5.801 13.28-7.286 17.461-3.312"/>
        <path fill="#BB7329" d="M39.9 28.573c-3.134 2.505-2.916 8.066.542 12.43 3.437 4.358 8.78 5.87 11.9 3.365.637-.508 1.588-1.117 1.938-1.822 1.44-2.852.282-7.12-2.48-10.608-2.784-3.52-6.221-5.833-9.302-5.027-.765.182-2.003 1.176-2.598 1.662"/>
        <path fill="#FAAD18" d="M41.189 27.589c-3.134 2.505-2.874 8.066.563 12.43 3.458 4.358 8.776 5.87 11.915 3.365 3.134-2.505 2.874-8.066-.563-12.43-3.448-4.359-8.776-5.86-11.915-3.365"/>
        <path fill="#FEDB91" d="M42.388 28.612c-2.672 2.126-2.449 6.826.484 10.523 2.895 3.685 7.41 4.962 10.066 2.836 2.656-2.11 2.45-6.821-.462-10.502-2.916-3.701-7.416-4.967-10.088-2.857"/>
        <path fill="#BB7329" d="M51.484 17.314c-2.056 1.645-1.891 5.288.372 8.146 2.257 2.852 5.747 3.846 7.787 2.195.41-.32 1.047-.721 1.291-1.197.935-1.853.165-4.652-1.647-6.944-1.832-2.291-4.069-3.814-6.087-3.295-.49.122-1.307.78-1.716 1.095"/>
        <path fill="#FAAD18" d="M52.341 16.67c-2.056 1.64-1.907 5.288.372 8.14 2.242 2.858 5.732 3.84 7.804 2.206 2.06-1.64 1.89-5.277-.367-8.151-2.263-2.853-5.758-3.84-7.809-2.196"/>
        <path fill="#FEDB91" d="M53.126 17.348c-1.737 1.378-1.61 4.465.314 6.88 1.886 2.42 4.855 3.258 6.598 1.87 1.737-1.39 1.604-4.472-.298-6.891-1.923-2.425-4.877-3.259-6.614-1.86"/>
        <path fill="#BB7329" d="M66.535.651c2.576.748 3.867 4.3 2.82 7.911-1.046 3.611-3.978 5.93-6.592 5.166-.526-.15-1.27-.278-1.663-.63-1.641-1.416-1.981-4.386-1.158-7.265.845-2.917 2.39-5.251 4.537-5.55.51-.075 1.53.219 2.056.368"/>
        <path fill="#FAAD18" d="M65.45.368c2.598.758 3.89 4.305 2.821 7.905-1.03 3.617-3.978 5.946-6.592 5.182-2.576-.753-3.846-4.284-2.82-7.911 1.046-3.606 4-5.93 6.592-5.176"/>
        <path fill="#FEDB91" d="M64.986 1.319c2.184.646 3.267 3.643 2.375 6.693-.882 3.06-3.384 5.02-5.573 4.374-2.199-.625-3.283-3.632-2.385-6.693.871-3.05 3.363-5.01 5.583-4.374"/>
        <path fill="#BB7329" d="M80.092 15.89c-3.904-2.644-9.896-.657-13.296 4.444-3.395 5.075-2.986 11.394.919 14.043 3.92 2.645 9.88.657 13.275-4.444 3.437-5.074 3.007-11.383-.898-14.043"/>
        <path fill="#FAAD18" d="M67.115 33.638c3.904 2.665 9.88.657 13.275-4.445 3.437-5.08 2.991-11.388-.898-14.048-3.899-2.634-9.896-.636-13.296 4.444-3.4 5.096-3.007 11.42.919 14.049"/>
        <path fill="#FEDB91" d="M68.066 32.226c3.305 2.233 8.351.545 11.241-3.755 2.9-4.316 2.545-9.647-.765-11.886-3.304-2.232-8.388-.555-11.24 3.75-2.88 4.306-2.54 9.647.764 11.89"/>
        <path fill="#FAAD18" d="M70.055 40.29l7.57 9.908c.032.064.026.112-.022.15l-.94.72c-.053.049-.1.038-.143-.015l-2.848-3.729-.085.065c.123.747-.148 1.613-.807 2.585l-.271.278 1.875 2.451c.032.06.027.107-.021.145l-.935.726c-.058.043-.106.038-.149-.021l-1.8-2.356c-1.047.812-2.566.95-4.543.427-1.53-.64-2.475-1.201-2.842-1.688-.031.022-.063.006-.106-.048l-2.794 10.614-.08.064-1.546-2.024c-.015-.016 1.068-4.124 3.246-12.313l.043-.032.488.636c1.727 2.265 3.576 2.997 5.541 2.2.213-.117.383-.224.5-.314l.127-.102-3.804-4.973c-.042-.059-.037-.107.022-.15l.935-.72c.063-.038.111-.033.148.015l3.767 4.936c.504-.657.749-1.41.727-2.26-.18-1.057-.51-1.901-.982-2.52l-1.376-1.8c-.043-.06-.037-.108.021-.15l.935-.727c.064-.032.112-.027.149.022M72.758 17.574l6.741 3.028c.038.022.048.048.032.08l-.287.647c-.016.037-.042.048-.08.032l-2.539-1.138-.026.059c.276.358.377.881.308 1.581l-.064.219 1.668.748c.037.021.048.048.032.085l-.287.641c-.016.043-.048.054-.085.032l-1.604-.715c-.319.72-1.068 1.223-2.252 1.511-.978.102-1.631.075-1.96-.07-.011.017-.032.017-.07 0l1.525 6.341-.027.06-1.375-.615c-.011-.01-.6-2.463-1.764-7.361l.01-.032.436.198c1.54.689 2.715.55 3.517-.428.08-.123.133-.23.17-.31l.037-.085-3.384-1.522c-.037-.016-.048-.043-.032-.08l.287-.647c.021-.037.048-.048.085-.032l3.357 1.512c.075-.486-.01-.951-.26-1.389-.388-.502-.797-.85-1.222-1.042l-1.227-.55c-.037-.016-.048-.043-.026-.08l.281-.646c.027-.038.053-.048.085-.032M62.57 2.883l4.383 1.97c.027.011.032.033.021.054l-.186.417c-.01.026-.026.032-.053.021l-1.652-.742-.016.037c.18.235.244.577.202 1.03l-.043.145 1.084.486c.021.016.032.032.021.054l-.186.422c-.01.021-.031.032-.053.016l-1.04-.465c-.213.47-.702.796-1.467.983-.637.064-1.062.048-1.275-.048-.005.016-.021.016-.048.005l.994 4.124-.016.037-.898-.4c-.005-.006-.388-1.603-1.147-4.792l.01-.016.282.128c.998.449 1.763.358 2.284-.277.053-.08.09-.15.111-.203l.027-.054-2.205-.988c-.02-.01-.026-.032-.015-.053l.185-.422c.011-.022.032-.027.054-.022l2.183.983c.048-.315-.005-.62-.17-.903-.255-.326-.515-.55-.792-.673l-.796-.363c-.027-.01-.032-.027-.022-.053l.186-.417c.016-.027.032-.032.053-.021M41.864 33.419l6.13-4.14c.037-.016.07-.01.085.016l.393.587c.027.038.016.065-.016.091l-2.305 1.555.032.053c.446-.043.945.15 1.498.577l.149.17 1.519-1.02c.037-.02.064-.015.085.017l.393.587c.021.032.016.064-.016.086l-1.46.983c.44.657.467 1.565.079 2.724-.436.886-.802 1.431-1.1 1.634.01.016 0 .038-.037.06l6.157 2.066.037.054-1.254.844c-.01.01-2.39-.79-7.14-2.404l-.015-.027.393-.267c1.402-.94 1.902-2.014 1.509-3.215-.064-.134-.123-.24-.17-.316l-.054-.074-3.075 2.077c-.037.022-.064.016-.09-.016l-.394-.587c-.016-.038-.01-.07.022-.091l3.049-2.056c-.367-.326-.802-.503-1.302-.519-.632.064-1.142.23-1.524.486l-1.116.754c-.037.026-.064.021-.09-.016l-.388-.588c-.021-.037-.016-.064.016-.085M53.332 19.775l3.973-1.576c.022-.005.038 0 .043.022l.149.379c.01.021.005.037-.016.048l-1.498.593.016.032c.255.032.515.203.77.513l.069.117.983-.39c.021-.01.037 0 .042.016l.149.38c.01.026.005.042-.016.048l-.946.374c.165.427.07.945-.292 1.554-.35.443-.627.705-.818.785 0 .01-.005.022-.026.027l3.219 1.934.016.032-.813.32c-.005.005-1.254-.742-3.74-2.243l-.005-.016.255-.102c.908-.358 1.323-.903 1.248-1.63-.021-.085-.037-.149-.058-.197l-.021-.053-1.992.79c-.022.011-.038.006-.048-.016l-.149-.379c-.005-.027 0-.043.021-.048l1.976-.785c-.164-.23-.393-.385-.674-.454-.362-.043-.67-.01-.92.085l-.722.289c-.021.005-.037 0-.048-.022l-.148-.379c-.006-.027 0-.043.02-.048"/>
    </g>
</svg>
